<svg xmlns:xlink="http://www.w3.org/1999/xlink" xmlns="http://www.w3.org/2000/svg" viewBox="0 0 300 202.81417186685923" preserveAspectRatio="xMidYMid meet" class="css-88gl6m" id="fdchfedc" width="300"  height="202.81417186685923" ><defs id="SvgjsDefs1405"></defs><g id="SvgjsG1406" featurekey="symbolFeature-0" transform="matrix(0.4590665217762863,0,0,0.4590665217762863,32.47896342047148,-48.615152361387864)" fill="#FFFFFF"><g xmlns="http://www.w3.org/2000/svg" class="st0" style="display: none;" fill="#FFFFFF"><rect class="st1" width="512" height="512" style="display: inline; stroke-miterlimit: 10;" stroke="#FFFFFF" fill="none" stroke-width="0.1px"></rect><line class="st1" x1="0" y1="496" x2="512" y2="496" style="display: inline; stroke-miterlimit: 10;" stroke="#FFFFFF" fill="none" stroke-width="0.1px"></line><line class="st1" x1="0" y1="480" x2="512" y2="480" style="display: inline; stroke-miterlimit: 10;" stroke="#FFFFFF" fill="none" stroke-width="0.1px"></line><line class="st1" x1="0" y1="464" x2="512" y2="464" style="display: inline; stroke-miterlimit: 10;" stroke="#FFFFFF" fill="none" stroke-width="0.1px"></line><line class="st1" x1="0" y1="448" x2="512" y2="448" style="display: inline; stroke-miterlimit: 10;" stroke="#FFFFFF" fill="none" stroke-width="0.1px"></line><line class="st1" x1="0" y1="432" x2="512" y2="432" style="display: inline; stroke-miterlimit: 10;" stroke="#FFFFFF" fill="none" stroke-width="0.1px"></line><line class="st1" x1="0" y1="416" x2="512" y2="416" style="display: inline; stroke-miterlimit: 10;" stroke="#FFFFFF" fill="none" stroke-width="0.1px"></line><line class="st1" x1="0" y1="400" x2="512" y2="400" style="display: inline; stroke-miterlimit: 10;" stroke="#FFFFFF" fill="none" stroke-width="0.1px"></line><line class="st1" x1="0" y1="384" x2="512" y2="384" style="display: inline; stroke-miterlimit: 10;" stroke="#FFFFFF" fill="none" stroke-width="0.1px"></line><line class="st1" x1="0" y1="368" x2="512" y2="368" style="display: inline; stroke-miterlimit: 10;" stroke="#FFFFFF" fill="none" stroke-width="0.1px"></line><line class="st1" x1="0" y1="352" x2="512" y2="352" style="display: inline; stroke-miterlimit: 10;" stroke="#FFFFFF" fill="none" stroke-width="0.1px"></line><line class="st1" x1="0" y1="336" x2="512" y2="336" style="display: inline; stroke-miterlimit: 10;" stroke="#FFFFFF" fill="none" stroke-width="0.1px"></line><line class="st1" x1="0" y1="320" x2="512" y2="320" style="display: inline; stroke-miterlimit: 10;" stroke="#FFFFFF" fill="none" stroke-width="0.1px"></line><line class="st1" x1="0" y1="304" x2="512" y2="304" style="display: inline; stroke-miterlimit: 10;" stroke="#FFFFFF" fill="none" stroke-width="0.1px"></line><line class="st1" x1="0" y1="288" x2="512" y2="288" style="display: inline; stroke-miterlimit: 10;" stroke="#FFFFFF" fill="none" stroke-width="0.1px"></line><line class="st1" x1="0" y1="272" x2="512" y2="272" style="display: inline; stroke-miterlimit: 10;" stroke="#FFFFFF" fill="none" stroke-width="0.1px"></line><line class="st1" x1="0" y1="256" x2="512" y2="256" style="display: inline; stroke-miterlimit: 10;" stroke="#FFFFFF" fill="none" stroke-width="0.1px"></line><line class="st1" x1="0" y1="240" x2="512" y2="240" style="display: inline; stroke-miterlimit: 10;" stroke="#FFFFFF" fill="none" stroke-width="0.1px"></line><line class="st1" x1="0" y1="224" x2="512" y2="224" style="display: inline; stroke-miterlimit: 10;" stroke="#FFFFFF" fill="none" stroke-width="0.1px"></line><line class="st1" x1="0" y1="208" x2="512" y2="208" style="display: inline; stroke-miterlimit: 10;" stroke="#FFFFFF" fill="none" stroke-width="0.1px"></line><line class="st1" x1="0" y1="192" x2="512" y2="192" style="display: inline; stroke-miterlimit: 10;" stroke="#FFFFFF" fill="none" stroke-width="0.1px"></line><line class="st1" x1="0" y1="176" x2="512" y2="176" style="display: inline; stroke-miterlimit: 10;" stroke="#FFFFFF" fill="none" stroke-width="0.1px"></line><line class="st1" x1="0" y1="160" x2="512" y2="160" style="display: inline; stroke-miterlimit: 10;" stroke="#FFFFFF" fill="none" stroke-width="0.1px"></line><line class="st1" x1="0" y1="144" x2="512" y2="144" style="display: inline; stroke-miterlimit: 10;" stroke="#FFFFFF" fill="none" stroke-width="0.1px"></line><line class="st1" x1="0" y1="128" x2="512" y2="128" style="display: inline; stroke-miterlimit: 10;" stroke="#FFFFFF" fill="none" stroke-width="0.1px"></line><line class="st1" x1="0" y1="112" x2="512" y2="112" style="display: inline; stroke-miterlimit: 10;" stroke="#FFFFFF" fill="none" stroke-width="0.1px"></line><line class="st1" x1="0" y1="96" x2="512" y2="96" style="display: inline; stroke-miterlimit: 10;" stroke="#FFFFFF" fill="none" stroke-width="0.1px"></line><line class="st1" x1="0" y1="80" x2="512" y2="80" style="display: inline; stroke-miterlimit: 10;" stroke="#FFFFFF" fill="none" stroke-width="0.1px"></line><line class="st1" x1="0" y1="64" x2="512" y2="64" style="display: inline; stroke-miterlimit: 10;" stroke="#FFFFFF" fill="none" stroke-width="0.1px"></line><line class="st1" x1="0" y1="48" x2="512" y2="48" style="display: inline; stroke-miterlimit: 10;" stroke="#FFFFFF" fill="none" stroke-width="0.1px"></line><line class="st1" x1="0" y1="32" x2="512" y2="32" style="display: inline; stroke-miterlimit: 10;" stroke="#FFFFFF" fill="none" stroke-width="0.1px"></line><line class="st1" x1="0" y1="16" x2="512" y2="16" style="display: inline; stroke-miterlimit: 10;" stroke="#FFFFFF" fill="none" stroke-width="0.1px"></line><line class="st1" x1="496" y1="0" x2="496" y2="512" style="display: inline; stroke-miterlimit: 10;" stroke="#FFFFFF" fill="none" stroke-width="0.1px"></line><line class="st1" x1="480" y1="0" x2="480" y2="512" style="display: inline; stroke-miterlimit: 10;" stroke="#FFFFFF" fill="none" stroke-width="0.1px"></line><line class="st1" x1="464" y1="0" x2="464" y2="512" style="display: inline; stroke-miterlimit: 10;" stroke="#FFFFFF" fill="none" stroke-width="0.1px"></line><line class="st1" x1="448" y1="0" x2="448" y2="512" style="display: inline; stroke-miterlimit: 10;" stroke="#FFFFFF" fill="none" stroke-width="0.1px"></line><line class="st1" x1="432" y1="0" x2="432" y2="512" style="display: inline; stroke-miterlimit: 10;" stroke="#FFFFFF" fill="none" stroke-width="0.1px"></line><line class="st1" x1="416" y1="0" x2="416" y2="512" style="display: inline; stroke-miterlimit: 10;" stroke="#FFFFFF" fill="none" stroke-width="0.1px"></line><line class="st1" x1="400" y1="0" x2="400" y2="512" style="display: inline; stroke-miterlimit: 10;" stroke="#FFFFFF" fill="none" stroke-width="0.1px"></line><line class="st1" x1="384" y1="0" x2="384" y2="512" style="display: inline; stroke-miterlimit: 10;" stroke="#FFFFFF" fill="none" stroke-width="0.1px"></line><line class="st1" x1="368" y1="0" x2="368" y2="512" style="display: inline; stroke-miterlimit: 10;" stroke="#FFFFFF" fill="none" stroke-width="0.1px"></line><line class="st1" x1="352" y1="0" x2="352" y2="512" style="display: inline; stroke-miterlimit: 10;" stroke="#FFFFFF" fill="none" stroke-width="0.1px"></line><line class="st1" x1="336" y1="0" x2="336" y2="512" style="display: inline; stroke-miterlimit: 10;" stroke="#FFFFFF" fill="none" stroke-width="0.1px"></line><line class="st1" x1="320" y1="0" x2="320" y2="512" style="display: inline; stroke-miterlimit: 10;" stroke="#FFFFFF" fill="none" stroke-width="0.1px"></line><line class="st1" x1="304" y1="0" x2="304" y2="512" style="display: inline; stroke-miterlimit: 10;" stroke="#FFFFFF" fill="none" stroke-width="0.1px"></line><line class="st1" x1="288" y1="0" x2="288" y2="512" style="display: inline; stroke-miterlimit: 10;" stroke="#FFFFFF" fill="none" stroke-width="0.1px"></line><line class="st1" x1="272" y1="0" x2="272" y2="512" style="display: inline; stroke-miterlimit: 10;" stroke="#FFFFFF" fill="none" stroke-width="0.1px"></line><line class="st1" x1="256" y1="0" x2="256" y2="512" style="display: inline; stroke-miterlimit: 10;" stroke="#FFFFFF" fill="none" stroke-width="0.1px"></line><line class="st1" x1="240" y1="0" x2="240" y2="512" style="display: inline; stroke-miterlimit: 10;" stroke="#FFFFFF" fill="none" stroke-width="0.1px"></line><line class="st1" x1="224" y1="0" x2="224" y2="512" style="display: inline; stroke-miterlimit: 10;" stroke="#FFFFFF" fill="none" stroke-width="0.1px"></line><line class="st1" x1="208" y1="0" x2="208" y2="512" style="display: inline; stroke-miterlimit: 10;" stroke="#FFFFFF" fill="none" stroke-width="0.1px"></line><line class="st1" x1="192" y1="0" x2="192" y2="512" style="display: inline; stroke-miterlimit: 10;" stroke="#FFFFFF" fill="none" stroke-width="0.1px"></line><line class="st1" x1="176" y1="0" x2="176" y2="512" style="display: inline; stroke-miterlimit: 10;" stroke="#FFFFFF" fill="none" stroke-width="0.1px"></line><line class="st1" x1="160" y1="0" x2="160" y2="512" style="display: inline; stroke-miterlimit: 10;" stroke="#FFFFFF" fill="none" stroke-width="0.1px"></line><line class="st1" x1="144" y1="0" x2="144" y2="512" style="display: inline; stroke-miterlimit: 10;" stroke="#FFFFFF" fill="none" stroke-width="0.1px"></line><line class="st1" x1="128" y1="0" x2="128" y2="512" style="display: inline; stroke-miterlimit: 10;" stroke="#FFFFFF" fill="none" stroke-width="0.1px"></line><line class="st1" x1="112" y1="0" x2="112" y2="512" style="display: inline; stroke-miterlimit: 10;" stroke="#FFFFFF" fill="none" stroke-width="0.1px"></line><line class="st1" x1="96" y1="0" x2="96" y2="512" style="display: inline; stroke-miterlimit: 10;" stroke="#FFFFFF" fill="none" stroke-width="0.1px"></line><line class="st1" x1="80" y1="0" x2="80" y2="512" style="display: inline; stroke-miterlimit: 10;" stroke="#FFFFFF" fill="none" stroke-width="0.1px"></line><line class="st1" x1="64" y1="0" x2="64" y2="512" style="display: inline; stroke-miterlimit: 10;" stroke="#FFFFFF" fill="none" stroke-width="0.1px"></line><line class="st1" x1="48" y1="0" x2="48" y2="512" style="display: inline; stroke-miterlimit: 10;" stroke="#FFFFFF" fill="none" stroke-width="0.1px"></line><line class="st1" x1="32" y1="0" x2="32" y2="512" style="display: inline; stroke-miterlimit: 10;" stroke="#FFFFFF" fill="none" stroke-width="0.1px"></line><line class="st1" x1="16" y1="0" x2="16" y2="512" style="display: inline; stroke-miterlimit: 10;" stroke="#FFFFFF" fill="none" stroke-width="0.1px"></line></g><g xmlns="http://www.w3.org/2000/svg" fill="#FFFFFF"><g fill="#FFFFFF"><path d="M366.9,359c-13.3,0-24-10.8-24-24c0-13.3,10.8-24,24-24c2.1,0,4.2,0.3,6.2,0.9c1.7-13.8,4.5-25.6,7.1-35.2    c-12.1-5.2-32.3-12-58.1-12.5c-29.2-0.6-52,7-64.8,12.4c-12.7-5.4-35.5-13-64.8-12.4c-25.8,0.5-46,7.3-58.1,12.5    c2.7,9.5,5.3,21.1,7,34.7c1.3-0.2,2.5-0.3,3.8-0.3c13.3,0,24,10.8,24,24c0,13.3-10.8,24-24,24c-0.9,0-1.6-0.1-2.5-0.2    c-1.4,18.9-4.8,34.9-8.3,47.1c10-5.5,31-15.4,59.3-15.9c30.4-0.5,53,10.1,63.4,15.7c0,0.1,0,0.2,0,0.2c0.1,0,0.2-0.1,0.2-0.1    l0.2,0.1c0-0.1,0-0.2,0-0.2c10.3-5.6,32.9-16.2,63.4-15.7c28.3,0.5,49.3,10.4,59.3,15.9c-3.4-12.3-7-28.4-8.3-47.5    C370.2,358.9,368.6,359,366.9,359z" fill="#FFFFFF"></path><circle cx="366.7" cy="335.1" r="20" fill="#FFFFFF"></circle><circle cx="145.3" cy="335.1" r="20" fill="#FFFFFF"></circle></g><g fill="#FFFFFF"><path d="M232.8,244c-13.7,3.1-26.4,8.9-37.5,16.7c27.7,0.6,49.5,6.4,62,11.7c12.4-5.2,33.8-11,61.3-11.7    c-11.2-7.8-23.8-13.6-37.6-16.7c27.4-9.8,47-36.1,47-67c0-39.3-31.9-71.1-71.1-71.1s-71.1,31.9-71.1,71.1    C185.8,208,205.4,234.2,232.8,244z" fill="#FFFFFF"></path></g></g></g><g id="SvgjsG1407" featurekey="nameFeature-0" transform="matrix(1.526368021546533,0,0,1.526368021546533,-1.8316384234082845,141.45417478050425)" fill="#FFFFFF"><path d="M25.48 17.72 c1.16 2.32 1.96 4.96 1.96 8.16 s-0.84 6.4 -2.2 8.56 c-1.92 3.08 -7.56 5.76 -11.68 5.76 l-12.36 0 l0 -1.04 c0.92 0 1.76 -0.32 1.72 -1.12 l0 -24.2 c0 -0.8 -0.84 -1.12 -1.72 -1.12 l0 -1.04 l12.88 0 c5.32 0 9.8 2.8 11.4 6.04 z M12.6 37.52 c5.84 0 10 -4.28 10 -11.92 s-5.56 -11.4 -10.08 -11.36 l-5.8 0.04 l0 23.32 c2.04 -0.04 3.36 -0.08 5.88 -0.08 z M61.045 38.36 c0.28 0.56 1.04 0.8 1.8 0.8 l0 1.04 l-7.72 0 l0 -1.04 c0.8 0 1.08 -0.28 0.96 -0.92 l-2.96 -8.08 l-11.88 0 l-3.12 8.2 c-0.08 0.56 0.2 0.8 0.96 0.8 l0 1.04 l-6.4 0 l0 -1.04 c0.72 0 1.48 -0.2 1.8 -0.72 l0.12 -0.32 l0 -0.08 l0 0.04 l10 -25.28 l6 -1.96 l10.32 27.28 l0 -0.08 l0 0.08 z M41.645 28.240000000000002 l10.96 0 l-5.28 -14.36 z M108.09 11.52 l0 1.04 c-0.84 0 -1.92 0.28 -2.12 1.04 l0.04 -0.04 l-7.52 26.64 l-4.68 0 l-6.24 -17.32 l-5.76 17.32 l-5 0 l-7.52 -26.6 l0 0.08 c-0.12 -0.8 -1.12 -1.12 -2 -1.12 l0 -1.04 l7.48 0 l0 1.04 c-0.68 0 -0.96 0.2 -1 0.64 l5.92 21.68 l6.56 -17.92 l3.2 0 l6.88 17.92 l5.48 -21.2 c0.2 -0.8 -0.04 -1.12 -0.92 -1.12 l0 -1.04 l7.2 0 z M105.97 13.600000000000001 l0 0.08 l0 -0.08 z M134.815 38.12 c0.76 0.76 1.4 1.04 2.24 1.04 l0 1.04 l-5.8 0 l-7.44 -10.8 l-4 0 l0 8.64 c0 0.8 0.84 1.12 1.72 1.12 l0 1.04 l-7.8 0 l0 -1.04 c0.88 0 1.72 -0.32 1.72 -1.12 l0 -24.44 c-0.16 -0.6 -0.92 -0.84 -1.68 -0.84 l0 -1.04 l10.56 0 c6.72 0 10.24 3.72 10.24 8.68 s-3.52 8.04 -6.44 8.04 z M124.095 26.880000000000003 c3.36 0.04 5.84 -3.08 5.84 -6.88 c0 -3.92 -3.28 -5.92 -6.08 -5.92 c-3.04 0 -3.92 -0.16 -3.92 1.44 l0 11.32 z M169.86 38.36 c0.28 0.56 1.04 0.8 1.8 0.8 l0 1.04 l-7.72 0 l0 -1.04 c0.8 0 1.08 -0.28 0.96 -0.92 l-2.96 -8.08 l-11.88 0 l-3.12 8.2 c-0.08 0.56 0.2 0.8 0.96 0.8 l0 1.04 l-6.4 0 l0 -1.04 c0.72 0 1.48 -0.2 1.8 -0.72 l0.12 -0.32 l0 -0.08 l0 0.04 l10 -25.28 l6 -1.96 l10.32 27.28 l0 -0.08 l0 0.08 z M150.46 28.240000000000002 l10.96 0 l-5.28 -14.36 z M176.105 11.64 l21.64 0 l0 5.48 l-1.36 0 c-0.08 -0.8 -0.92 -2.72 -2.92 -2.72 l-4.24 0 l0 23.64 c-0.04 0.8 0.8 1.12 1.72 1.12 l0 1.04 l-8.16 0 l0 -1.04 c0.92 0 1.76 -0.32 1.72 -1.12 l0 -23.64 l-4.12 0 c-2 0 -2.84 1.92 -2.92 2.72 l-1.36 0 l0 -5.48 z" fill="#FFFFFF"></path></g></svg>